<svg id="Capa_1" data-name="Capa 1" xmlns="http://www.w3.org/2000/svg" viewBox="0 0 725.56 627.79"><defs><style>.cls-1,.cls-2{fill:#ff0;}.cls-2{font-size:97px;font-family:NatureBeautyPersonalUse, Nature Beauty Personal Use;}.cls-3{fill:#fff;stroke:#000;stroke-miterlimit:10;}</style></defs><title>logoOda</title><path class="cls-1" d="M387,246.5c84.22,0,152.5,78.8,152.5,176s-68.28,176-152.5,176-152.5-78.8-152.5-176S302.78,246.5,387,246.5Zm106,176C493,328.89,445.54,253,387,253S281,328.89,281,422.5,328.46,592,387,592,493,516.11,493,422.5Z" transform="translate(-234.5 -123.28)"/><polygon class="cls-1" points="354 130.22 354 475.22 394 475.22 394 116.22 354 130.22"/><text class="cls-2" transform="translate(190.56 558.15)">Librería</text><path class="cls-1" d="M768,358H748L628.5,462.08,773,635s15,24,47,27a310.57,310.57,0,0,0,58,0s-52-16-72-39S672,457,672,457s-7-8,1-15S768,358,768,358Z" transform="translate(-234.5 -123.28)"/><path class="cls-1" d="M839,130c13.78-12,37-5.48,60,1,19.14,5.4,34,9.58,46,24,15.83,18.94,15.18,41.52,15,48-.27,9.45-.9,31.74-18,47-18.29,16.32-42.63,13.2-52,12-7-.9-23-2.95-37-15-20.27-17.49-21.71-43.59-23-67C828.72,156.79,827.78,139.8,839,130Z" transform="translate(-234.5 -123.28)"/><path class="cls-3" d="M860,159c12.9,10.44,14,28.17,15,46,.83,14.05,2.67,45.32-19,67-13.7,13.71-30.57,17.33-43,20-14.47,3.11-27.49,5.9-41,0-28.54-12.47-31.84-51.74-32-54-1.84-26.41,12.2-45.24,16-50,9.13-11.43,19.28-16.92,27-21C790.36,163.11,835.58,139.24,860,159Z" transform="translate(-234.5 -123.28)"/></svg>